<?xml version="1.0" encoding="UTF-8" standalone="no"?>
<svg xmlns="http://www.w3.org/2000/svg" xmlns:xlink="http://www.w3.org/1999/xlink" width="560" height="380" viewBox="0 0 560 380" font-family="-apple-system, BlinkMacSystemFont, 'Segoe UI', Helvetica, Arial, sans-serif" role="img">
<title>Fig 2a - influence spread vs K (synthetic_small, C=10, Z=8)</title>
<defs><clipPath id="plotclip"><rect x="55.9" y="32" width="488.1" height="304.5"/></clipPath></defs>
<rect x="0" y="0" width="560" height="380" fill="#ffffff"/>
<text x="55.9" y="22" font-size="14" font-weight="600" fill="#202124">Fig 2a - influence spread vs K (synthetic_small, C=10, Z=8)</text>
<rect x="55.9" y="32" width="488.1" height="304.5" fill="#ffffff" stroke="#dfe1e5" stroke-width="1"/>
<path d="M55.9 336.5 H544" stroke="#dfe1e5" stroke-width="1" fill="none"/>
<path d="M51.9 336.5 H55.9" stroke="#5f6368" stroke-width="1"/>
<text x="48.9" y="340" font-size="10" fill="#70757a" text-anchor="end">0</text>
<path d="M55.9 285.12 H544" stroke="#dfe1e5" stroke-width="1" fill="none"/>
<path d="M51.9 285.12 H55.9" stroke="#5f6368" stroke-width="1"/>
<text x="48.9" y="288.62" font-size="10" fill="#70757a" text-anchor="end">20</text>
<path d="M55.9 233.75 H544" stroke="#dfe1e5" stroke-width="1" fill="none"/>
<path d="M51.9 233.75 H55.9" stroke="#5f6368" stroke-width="1"/>
<text x="48.9" y="237.25" font-size="10" fill="#70757a" text-anchor="end">40</text>
<path d="M55.9 182.37 H544" stroke="#dfe1e5" stroke-width="1" fill="none"/>
<path d="M51.9 182.37 H55.9" stroke="#5f6368" stroke-width="1"/>
<text x="48.9" y="185.87" font-size="10" fill="#70757a" text-anchor="end">60</text>
<path d="M55.9 131 H544" stroke="#dfe1e5" stroke-width="1" fill="none"/>
<path d="M51.9 131 H55.9" stroke="#5f6368" stroke-width="1"/>
<text x="48.9" y="134.5" font-size="10" fill="#70757a" text-anchor="end">80</text>
<path d="M55.9 79.62 H544" stroke="#dfe1e5" stroke-width="1" fill="none"/>
<path d="M51.9 79.62 H55.9" stroke="#5f6368" stroke-width="1"/>
<text x="48.9" y="83.12" font-size="10" fill="#70757a" text-anchor="end">100</text>
<path d="M73.98 32 V336.5" stroke="#dfe1e5" stroke-width="1" fill="none"/>
<path d="M73.98 336.5 V340.5" stroke="#5f6368" stroke-width="1"/>
<text x="73.98" y="352.5" font-size="10" fill="#70757a" text-anchor="middle">1</text>
<path d="M164.37 32 V336.5" stroke="#dfe1e5" stroke-width="1" fill="none"/>
<path d="M164.37 336.5 V340.5" stroke="#5f6368" stroke-width="1"/>
<text x="164.37" y="352.5" font-size="10" fill="#70757a" text-anchor="middle">11</text>
<path d="M254.76 32 V336.5" stroke="#dfe1e5" stroke-width="1" fill="none"/>
<path d="M254.76 336.5 V340.5" stroke="#5f6368" stroke-width="1"/>
<text x="254.76" y="352.5" font-size="10" fill="#70757a" text-anchor="middle">21</text>
<path d="M525.92 32 V336.5" stroke="#dfe1e5" stroke-width="1" fill="none"/>
<path d="M525.92 336.5 V340.5" stroke="#5f6368" stroke-width="1"/>
<text x="525.92" y="352.5" font-size="10" fill="#70757a" text-anchor="middle">51</text>
<path d="M55.9 32 V336.5 H544" stroke="#5f6368" stroke-width="1.2" fill="none"/>
<text x="299.95" y="372" font-size="11.5" fill="#202124" text-anchor="middle">seed set size K</text>
<text x="21.2" y="184.25" font-size="11.5" fill="#202124" text-anchor="middle" transform="rotate(-90 21.2 184.25)">influence spread I(S)</text>
<g clip-path="url(#plotclip)">
<path d="M73.98 329.44 L164.37 272.24 L254.76 217.54 L525.92 69.06" fill="none" stroke="#1f5fd0" stroke-width="2" stroke-linejoin="round" stroke-linecap="round"/>
<circle cx="73.98" cy="329.44" r="3.4" fill="#1f5fd0" stroke="#ffffff" stroke-width="1"/>
<circle cx="164.37" cy="272.24" r="3.4" fill="#1f5fd0" stroke="#ffffff" stroke-width="1"/>
<circle cx="254.76" cy="217.54" r="3.4" fill="#1f5fd0" stroke="#ffffff" stroke-width="1"/>
<circle cx="525.92" cy="69.06" r="3.4" fill="#1f5fd0" stroke="#ffffff" stroke-width="1"/>
<path d="M73.98 330.47 L164.37 271.59 L254.76 218.7 L525.92 69.5" fill="none" stroke="#e8830c" stroke-width="2" stroke-linejoin="round" stroke-linecap="round"/>
<rect x="70.92" y="327.41" width="6.12" height="6.12" fill="#e8830c" stroke="#ffffff" stroke-width="1"/>
<rect x="161.31" y="268.53" width="6.12" height="6.12" fill="#e8830c" stroke="#ffffff" stroke-width="1"/>
<rect x="251.7" y="215.64" width="6.12" height="6.12" fill="#e8830c" stroke="#ffffff" stroke-width="1"/>
<rect x="522.86" y="66.44" width="6.12" height="6.12" fill="#e8830c" stroke="#ffffff" stroke-width="1"/>
<path d="M73.98 330.38 L164.37 267.51 L254.76 208.78 L525.92 54.11" fill="none" stroke="#2e9e4f" stroke-width="2" stroke-linejoin="round" stroke-linecap="round"/>
<polygon points="73.98,325.79 78.57,330.38 73.98,334.97 69.39,330.38" fill="#2e9e4f" stroke="#ffffff" stroke-width="1"/>
<polygon points="164.37,262.92 168.96,267.51 164.37,272.1 159.78,267.51" fill="#2e9e4f" stroke="#ffffff" stroke-width="1"/>
<polygon points="254.76,204.19 259.35,208.78 254.76,213.37 250.17,208.78" fill="#2e9e4f" stroke="#ffffff" stroke-width="1"/>
<polygon points="525.92,49.52 530.51,54.11 525.92,58.7 521.33,54.11" fill="#2e9e4f" stroke="#ffffff" stroke-width="1"/>
<path d="M73.98 330.29 L164.37 268.13 L254.76 211.95 L525.92 64.67" fill="none" stroke="#8a8f98" stroke-width="2" stroke-linejoin="round" stroke-linecap="round"/>
<polygon points="73.98,325.7 78.57,334.19 69.39,334.19" fill="#8a8f98" stroke="#ffffff" stroke-width="1"/>
<polygon points="164.37,263.54 168.96,272.03 159.78,272.03" fill="#8a8f98" stroke="#ffffff" stroke-width="1"/>
<polygon points="254.76,207.36 259.35,215.86 250.17,215.86" fill="#8a8f98" stroke="#ffffff" stroke-width="1"/>
<polygon points="525.92,60.08 530.51,68.57 521.33,68.57" fill="#8a8f98" stroke="#ffffff" stroke-width="1"/>
<path d="M73.98 329.44 L164.37 267.64 L254.76 215.42 L525.92 72.16" fill="none" stroke="#e0b013" stroke-width="2" stroke-linejoin="round" stroke-linecap="round"/>
<path d="M70.07 325.53 L77.89 333.35 M70.07 333.35 L77.89 325.53" stroke="#e0b013" stroke-width="2.1" stroke-linecap="round" fill="none"/>
<path d="M160.46 263.73 L168.28 271.55 M160.46 271.55 L168.28 263.73" stroke="#e0b013" stroke-width="2.1" stroke-linecap="round" fill="none"/>
<path d="M250.85 211.51 L258.67 219.33 M250.85 219.33 L258.67 211.51" stroke="#e0b013" stroke-width="2.1" stroke-linecap="round" fill="none"/>
<path d="M522.01 68.25 L529.83 76.07 M522.01 76.07 L529.83 68.25" stroke="#e0b013" stroke-width="2.1" stroke-linecap="round" fill="none"/>
</g>
<g>
<rect x="438.62" y="240" width="97.38" height="88.5" rx="4" fill="#ffffff" fill-opacity="0.92" stroke="#dfe1e5" stroke-width="1"/>
<path d="M445.62 253.25 H465.62" stroke="#1f5fd0" stroke-width="2" stroke-linecap="round"/>
<circle cx="455.62" cy="253.25" r="3" fill="#1f5fd0" stroke="#ffffff" stroke-width="1"/>
<text x="470.62" y="256.93" font-size="10.5" fill="#202124">CTIM</text>
<path d="M445.62 268.75 H465.62" stroke="#e8830c" stroke-width="2" stroke-linecap="round"/>
<rect x="452.92" y="266.05" width="5.4" height="5.4" fill="#e8830c" stroke="#ffffff" stroke-width="1"/>
<text x="470.62" y="272.43" font-size="10.5" fill="#202124">CTIM_CGA</text>
<path d="M445.62 284.25 H465.62" stroke="#2e9e4f" stroke-width="2" stroke-linecap="round"/>
<polygon points="455.62,280.2 459.67,284.25 455.62,288.3 451.57,284.25" fill="#2e9e4f" stroke="#ffffff" stroke-width="1"/>
<text x="470.62" y="287.93" font-size="10.5" fill="#202124">AIR+CGA</text>
<path d="M445.62 299.75 H465.62" stroke="#8a8f98" stroke-width="2" stroke-linecap="round"/>
<polygon points="455.62,295.7 459.67,303.19 451.57,303.19" fill="#8a8f98" stroke="#ffffff" stroke-width="1"/>
<text x="470.62" y="303.43" font-size="10.5" fill="#202124">CINEMA</text>
<path d="M445.62 315.25 H465.62" stroke="#e0b013" stroke-width="2" stroke-linecap="round"/>
<path d="M452.17 311.8 L459.07 318.7 M452.17 318.7 L459.07 311.8" stroke="#e0b013" stroke-width="2.1" stroke-linecap="round" fill="none"/>
<text x="470.62" y="318.93" font-size="10.5" fill="#202124">Greedy</text>
</g>
</svg>
